<svg width="51" height="14" viewBox="0 0 51 14" fill="none" xmlns="http://www.w3.org/2000/svg">
<path d="M7.4702 12.36C7.20353 12.6 6.8702 12.7867 6.4702 12.92C6.08353 13.04 5.67686 13.1 5.2502 13.1C4.26353 13.1 3.50353 12.8333 2.9702 12.3C2.43686 11.7667 2.1702 11.0133 2.1702 10.04V3.68H0.290195V2.48H2.1702V0.179999H3.5902V2.48H6.7902V3.68H3.5902V9.96C3.5902 10.5867 3.74353 11.0667 4.0502 11.4C4.3702 11.72 4.82353 11.88 5.4102 11.88C5.70353 11.88 5.98353 11.8333 6.2502 11.74C6.5302 11.6467 6.7702 11.5133 6.9702 11.34L7.4702 12.36ZM18.8441 8.18H10.0441C10.1241 9.27333 10.5441 10.16 11.3041 10.84C12.0641 11.5067 13.0241 11.84 14.1841 11.84C14.8374 11.84 15.4374 11.7267 15.9841 11.5C16.5308 11.26 17.0041 10.9133 17.4041 10.46L18.2041 11.38C17.7374 11.94 17.1508 12.3667 16.4441 12.66C15.7508 12.9533 14.9841 13.1 14.1441 13.1C13.0641 13.1 12.1041 12.8733 11.2641 12.42C10.4374 11.9533 9.79077 11.3133 9.3241 10.5C8.85743 9.68667 8.6241 8.76667 8.6241 7.74C8.6241 6.71333 8.8441 5.79333 9.2841 4.98C9.73743 4.16667 10.3508 3.53333 11.1241 3.08C11.9108 2.62667 12.7908 2.4 13.7641 2.4C14.7374 2.4 15.6108 2.62667 16.3841 3.08C17.1574 3.53333 17.7641 4.16667 18.2041 4.98C18.6441 5.78 18.8641 6.7 18.8641 7.74L18.8441 8.18ZM13.7641 3.62C12.7508 3.62 11.8974 3.94667 11.2041 4.6C10.5241 5.24 10.1374 6.08 10.0441 7.12H17.5041C17.4108 6.08 17.0174 5.24 16.3241 4.6C15.6441 3.94667 14.7908 3.62 13.7641 3.62ZM25.1414 2.4C26.5148 2.4 27.5681 2.74667 28.3014 3.44C29.0348 4.12 29.4014 5.13333 29.4014 6.48V13H28.0414V11.36C27.7214 11.9067 27.2481 12.3333 26.6214 12.64C26.0081 12.9467 25.2748 13.1 24.4214 13.1C23.2481 13.1 22.3148 12.82 21.6214 12.26C20.9281 11.7 20.5814 10.96 20.5814 10.04C20.5814 9.14667 20.9014 8.42667 21.5414 7.88C22.1948 7.33333 23.2281 7.06 24.6414 7.06H27.9814V6.42C27.9814 5.51333 27.7281 4.82667 27.2214 4.36C26.7148 3.88 25.9748 3.64 25.0014 3.64C24.3348 3.64 23.6948 3.75333 23.0814 3.98C22.4681 4.19333 21.9414 4.49333 21.5014 4.88L20.8614 3.82C21.3948 3.36667 22.0348 3.02 22.7814 2.78C23.5281 2.52667 24.3148 2.4 25.1414 2.4ZM24.6414 11.98C25.4414 11.98 26.1281 11.8 26.7014 11.44C27.2748 11.0667 27.7014 10.5333 27.9814 9.84V8.12H24.6814C22.8814 8.12 21.9814 8.74667 21.9814 10C21.9814 10.6133 22.2148 11.1 22.6814 11.46C23.1481 11.8067 23.8014 11.98 24.6414 11.98ZM46.3783 2.4C47.6983 2.4 48.7317 2.78 49.4783 3.54C50.2383 4.3 50.6183 5.42 50.6183 6.9V13H49.1983V7.04C49.1983 5.94667 48.9317 5.11333 48.3983 4.54C47.8783 3.96667 47.1383 3.68 46.1783 3.68C45.085 3.68 44.225 4.02 43.5983 4.7C42.9717 5.36667 42.6583 6.29333 42.6583 7.48V13H41.2383V7.04C41.2383 5.94667 40.9717 5.11333 40.4383 4.54C39.9183 3.96667 39.1717 3.68 38.1983 3.68C37.1183 3.68 36.2583 4.02 35.6183 4.7C34.9917 5.36667 34.6783 6.29333 34.6783 7.48V13H33.2583V2.48H34.6183V4.4C34.9917 3.76 35.5117 3.26667 36.1783 2.92C36.845 2.57333 37.6117 2.4 38.4783 2.4C39.3583 2.4 40.1183 2.58667 40.7583 2.96C41.4117 3.33333 41.8983 3.88667 42.2183 4.62C42.605 3.92667 43.1583 3.38667 43.8783 3C44.6117 2.6 45.445 2.4 46.3783 2.4Z" fill="#323264"/>
</svg>
